# xmcd
#
# Track frame offsets: 
#        150
#        1768
#        21598
#        30583
#        42573
#        55638
#        70340
#        90275
#        103170
#        118660
#        135525
#        141513
#        154198
#        173075
#        173835
#        193150
#        207280
#        226488
#        227370
#        242233
#        255698
#        256090
#        267003
#        267815
#
# Disc length: 3816 seconds
#
# Revision: 0
# Processed by: cddbd v1.5.2PL0 Copyright (c) Steve Scherf et al.
# Submitted via: ExactAudioCopy v0.95b4
#
DISCID=490ee618
DTITLE=Flamez Mixtape - Kutt Calhoun
DYEAR=2007
DGENRE=Rap
TTITLE0=The Greatest Song Ever...
TTITLE1=Hit Me Back Ft Tech N9ne
TTITLE2=The Story
TTITLE3=Letchu Know Ft Snug Brim
TTITLE4=The Anthem
TTITLE5=In My Cup Ft 3rd Degree
TTITLE6=Kocky
TTITLE7=I'm Da One Ft Big Krizz Kaliko
TTITLE8=Blik Blik Blowh
TTITLE9=Bounce Ft B-G Bulletwound
TTITLE10=Automatic
TTITLE11=1st Lady
TTITLE12=Move On Ft Tech N9ne
TTITLE13=So Damn Hot...
TTITLE14=Putcha On Da Flamez Ft Big Krizz Kaliko
TTITLE15=Changin Lanez Ft Duece Klik
TTITLE16=Wanted 4 Murder - Flamethrower Ft B-G Bulletwound and Skatterma
TTITLE16=n
TTITLE17=Pants Party...
TTITLE18=Party People Ft Young Greed
TTITLE19=N Da Trunk Ft Grant Rice
TTITLE20=Whore Island...
TTITLE21=Strip Club Song
TTITLE22=Bears...
TTITLE23=We Can't Stop Ft 2Pac
EXTD=
EXTT0=
EXTT1=
EXTT2=
EXTT3=
EXTT4=
EXTT5=
EXTT6=
EXTT7=
EXTT8=
EXTT9=
EXTT10=
EXTT11=
EXTT12=
EXTT13=
EXTT14=
EXTT15=
EXTT16=
EXTT17=
EXTT18=
EXTT19=
EXTT20=
EXTT21=
EXTT22=
EXTT23=
PLAYORDER=
